OpenSim_Sub11_CSPreOp_RCS.mot
version=1
nRows=27
nColumns=11
inDegrees=no
endheader
time	Top_Thigh	Med_Thigh	Bot_Thigh	Top_Shank	2nd_Top_Shank	2nd_Bot_Shank	Bot_Shank	BNOx	BNOy	BNOZ
9.25000000	1915.18535337	1757.75623749	1737.48276627	1366.94220662	1487.16002237	1300.78345120	1243.66017185	25.28453060	-72.36755270	97.89339690
9.26000000	1914.46629959	1754.76939737	1736.74753479	1363.22486871	1487.21183614	1301.33555197	1243.05433591	25.62057050	-72.46770808	132.50466406
9.27000000	1913.66355671	1751.58371509	1735.84578602	1361.13308559	1487.89411318	1301.76603595	1242.06123429	25.94372827	-72.58409273	161.39576090
9.28000000	1912.83495449	1748.35975607	1734.77091175	1361.21599330	1489.36432444	1302.04097560	1240.69892365	26.24960508	-72.71834162	182.78502230
9.29000000	1912.02818030	1745.22744446	1733.53328753	1363.73184494	1491.68177780	1302.14528962	1239.00305845	26.54116422	-72.86711431	195.78572014
9.30000000	1911.26829253	1742.24833977	1732.18118199	1368.28989529	1494.68676638	1302.10594525	1237.04855620	26.83779474	-73.01596957	201.50784884
9.31000000	1910.57728774	1739.47475132	1730.76799090	1374.41158541	1498.18994914	1301.95559913	1234.91564699	27.16110821	-73.14896417	201.33157249
9.32000000	1909.97716245	1736.95898840	1729.34711006	1381.61835635	1502.00198505	1301.72690793	1232.68456087	27.53271620	-73.25015489	196.63705518
9.33000000	1909.48991322	1734.75336035	1727.97193525	1389.43164916	1505.93353310	1301.45252831	1230.43552791	27.97423029	-73.30359851	188.80446101
9.34000000	1909.13753658	1732.91017646	1726.69586227	1397.37290488	1509.79525225	1301.16511691	1228.24877818	28.50726205	-73.29335178	179.21395405
9.35000000	1908.94168220	1731.48092674	1725.57161509	1404.96892339	1513.39997781	1300.89695841	1226.20361043	29.15311004	-73.20370384	169.23099290
9.36000000	1908.91051506	1730.48525056	1724.62580107	1411.95482791	1516.64515016	1300.66587582	1224.34311829	29.92090450	-73.02797655	159.64935998
9.37000000	1909.03468303	1729.90141220	1723.85110117	1418.33636116	1519.53811463	1300.47090603	1222.66336371	30.80396861	-72.77122558	150.52021014
9.38000000	1909.30366332	1729.70491074	1723.23792897	1424.13735179	1522.09356173	1300.30983038	1221.15726541	31.79456915	-72.43929083	141.84506717
9.39000000	1909.70693311	1729.87124529	1722.77669808	1429.38162846	1524.32618191	1300.18043024	1219.81774212	32.88497286	-72.03801219	133.62545487
9.40000000	1910.23396959	1730.37591495	1722.45782208	1434.09301981	1526.25066568	1300.08048697	1218.63771256	34.06744652	-71.57322952	125.86289705
9.41000000	1910.87424994	1731.19441882	1722.27171457	1438.29535452	1527.88170350	1300.00778193	1217.61009545	35.33425688	-71.05078272	118.55891749
9.42000000	1911.61725135	1732.30225600	1722.20878914	1442.01246122	1529.23398585	1299.96009649	1216.72780953	36.67767073	-70.47651167	111.71504000
9.43000000	1912.45245102	1733.67492559	1722.25945938	1445.26816858	1530.32220323	1299.93521199	1215.98377352	38.08995480	-69.85625624	105.33278836
9.44000000	1913.36932612	1735.28792669	1722.41413889	1448.08630526	1531.16104610	1299.93090980	1215.37090615	39.56337589	-69.19585633	99.41368639
9.45000000	1914.35735385	1737.11675841	1722.66324126	1450.49069990	1531.76520495	1299.94497128	1214.88212613	41.09020073	-68.50115182	93.95925788
9.46000000	1915.40601140	1739.13691983	1722.99718008	1452.50518117	1532.14937027	1299.97517779	1214.51035221	42.66269611	-67.77798259	88.97102663
9.47000000	1916.50477596	1741.32391007	1723.40636894	1454.15357771	1532.32823253	1300.01931070	1214.24850309	44.27312879	-67.03218852	84.45051643
9.48000000	1917.64312470	1743.65322823	1723.88122144	1455.45971819	1532.31648221	1300.07515135	1214.08949752	45.91376552	-66.26960950	80.39925108
9.49000000	1918.81053483	1746.10037339	1724.41215116	1456.44743127	1532.12880979	1300.14048112	1214.02625421	47.57687307	-65.49608540	76.81875438
9.50000000	1919.99648352	1748.64084467	1724.98957172	1457.14054559	1531.77990576	1300.21308135	1214.05169189	49.25471822	-64.71745612	73.71055013
9.51000000	1921.19044797	1751.25014116	1725.60389668	1457.56288981	1531.28446060	1300.29073342	1214.15872929	50.93956771	-63.93956153	71.07616213
